<mxfile host="app.diagrams.net" modified="2023-10-22T22:50:50.221Z" agent="Mozilla/5.0 (Windows NT 10.0; Win64; x64) AppleWebKit/537.36 (KHTML, like Gecko) Chrome/117.0.0.0 Safari/537.36 Edg/117.0.2045.47" etag="UMheQZYaqnqZlBSdw1kR" version="22.0.6" type="google">
  <diagram name="Page-1" id="oBmTGOQ4d8iayzNCdB5j">
    <mxGraphModel grid="1" page="1" gridSize="10" guides="1" tooltips="1" connect="1" arrows="1" fold="1" pageScale="1" pageWidth="850" pageHeight="1100" math="0" shadow="0">
      <root>
        <mxCell id="0" />
        <mxCell id="1" parent="0" />
        <mxCell id="Txb1ILuyi1FyjXAz6f0s-2" value="" style="ellipse;whiteSpace=wrap;html=1;aspect=fixed;" vertex="1" parent="1">
          <mxGeometry x="-2520" y="85" width="1070" height="1070" as="geometry" />
        </mxCell>
        <mxCell id="Txb1ILuyi1FyjXAz6f0s-3" value="" style="ellipse;whiteSpace=wrap;html=1;aspect=fixed;" vertex="1" parent="1">
          <mxGeometry x="-2330" y="160" width="460" height="460" as="geometry" />
        </mxCell>
        <mxCell id="Txb1ILuyi1FyjXAz6f0s-1" value="&lt;font style=&quot;font-size: 24px;&quot;&gt;Main Components:&lt;br&gt;-Control Rods&lt;br&gt;-Fuel rods&lt;br&gt;-Pump&lt;br&gt;-Core&lt;br&gt;-Coolant&lt;br&gt;-Turbine generator&lt;br&gt;-Emergency Water System&lt;br&gt;-Heat Exchanger&lt;br&gt;&lt;br&gt;&lt;/font&gt;" style="text;html=1;strokeColor=none;fillColor=none;align=center;verticalAlign=middle;whiteSpace=wrap;rounded=0;" vertex="1" parent="1">
          <mxGeometry x="-1620" y="160" width="520" height="260" as="geometry" />
        </mxCell>
        <mxCell id="Txb1ILuyi1FyjXAz6f0s-5" value="&lt;b&gt;&lt;font style=&quot;font-size: 18px;&quot;&gt;Coolant System&lt;/font&gt;&lt;/b&gt;" style="text;html=1;strokeColor=none;fillColor=none;align=center;verticalAlign=middle;whiteSpace=wrap;rounded=0;" vertex="1" parent="1">
          <mxGeometry x="-2155" y="210" width="60" height="30" as="geometry" />
        </mxCell>
        <mxCell id="Txb1ILuyi1FyjXAz6f0s-38" value="&lt;span style=&quot;font-size: 14px;&quot;&gt;F&lt;sub&gt;pump&lt;/sub&gt;&lt;/span&gt;" style="ellipse;whiteSpace=wrap;html=1;aspect=fixed;fillColor=#A9C4EB;" vertex="1" parent="1">
          <mxGeometry x="-2165" y="310" width="80" height="80" as="geometry" />
        </mxCell>
        <mxCell id="Txb1ILuyi1FyjXAz6f0s-39" value="&lt;span style=&quot;font-size: 14px;&quot;&gt;F&lt;sub&gt;heat_exchanger&lt;/sub&gt;&lt;/span&gt;" style="ellipse;whiteSpace=wrap;html=1;aspect=fixed;fillColor=#A9C4EB;" vertex="1" parent="1">
          <mxGeometry x="-2025" y="330" width="80" height="80" as="geometry" />
        </mxCell>
        <mxCell id="Txb1ILuyi1FyjXAz6f0s-40" value="&lt;span style=&quot;font-size: 14px;&quot;&gt;F&lt;sub&gt;coolant&lt;/sub&gt;&lt;/span&gt;" style="ellipse;whiteSpace=wrap;html=1;aspect=fixed;fillColor=#A9C4EB;" vertex="1" parent="1">
          <mxGeometry x="-2270" y="400" width="80" height="80" as="geometry" />
        </mxCell>
        <mxCell id="Txb1ILuyi1FyjXAz6f0s-41" value="&lt;span style=&quot;font-size: 14px;&quot;&gt;F&lt;sub&gt;coolant_system&lt;/sub&gt;&lt;/span&gt;" style="ellipse;whiteSpace=wrap;html=1;aspect=fixed;fillColor=#A9C4EB;" vertex="1" parent="1">
          <mxGeometry x="-2120" y="460" width="80" height="80" as="geometry" />
        </mxCell>
        <mxCell id="Txb1ILuyi1FyjXAz6f0s-43" value="" style="endArrow=classic;html=1;rounded=0;" edge="1" parent="1" source="Txb1ILuyi1FyjXAz6f0s-38" target="Txb1ILuyi1FyjXAz6f0s-41">
          <mxGeometry width="50" height="50" relative="1" as="geometry">
            <mxPoint x="-2100" y="450" as="sourcePoint" />
            <mxPoint x="-2050" y="400" as="targetPoint" />
          </mxGeometry>
        </mxCell>
        <mxCell id="Txb1ILuyi1FyjXAz6f0s-44" value="" style="endArrow=classic;html=1;rounded=0;" edge="1" parent="1" source="Txb1ILuyi1FyjXAz6f0s-40" target="Txb1ILuyi1FyjXAz6f0s-41">
          <mxGeometry width="50" height="50" relative="1" as="geometry">
            <mxPoint x="-2210" y="510" as="sourcePoint" />
            <mxPoint x="-2160" y="460" as="targetPoint" />
          </mxGeometry>
        </mxCell>
        <mxCell id="Txb1ILuyi1FyjXAz6f0s-46" value="" style="endArrow=classic;html=1;rounded=0;" edge="1" parent="1" source="Txb1ILuyi1FyjXAz6f0s-39" target="Txb1ILuyi1FyjXAz6f0s-41">
          <mxGeometry width="50" height="50" relative="1" as="geometry">
            <mxPoint x="-1950" y="330" as="sourcePoint" />
            <mxPoint x="-1900" y="280" as="targetPoint" />
          </mxGeometry>
        </mxCell>
        <mxCell id="Txb1ILuyi1FyjXAz6f0s-47" value="&lt;span style=&quot;font-size: 14px;&quot;&gt;F&lt;sub&gt;Nuclear_Reactor&lt;/sub&gt;&lt;/span&gt;" style="ellipse;whiteSpace=wrap;html=1;aspect=fixed;fillColor=#A9C4EB;" vertex="1" parent="1">
          <mxGeometry x="-2100" y="680" width="80" height="80" as="geometry" />
        </mxCell>
        <mxCell id="Txb1ILuyi1FyjXAz6f0s-48" value="" style="endArrow=classic;html=1;rounded=0;" edge="1" parent="1" source="Txb1ILuyi1FyjXAz6f0s-41" target="Txb1ILuyi1FyjXAz6f0s-47">
          <mxGeometry width="50" height="50" relative="1" as="geometry">
            <mxPoint x="-2090" y="750" as="sourcePoint" />
            <mxPoint x="-2040" y="700" as="targetPoint" />
          </mxGeometry>
        </mxCell>
        <mxCell id="Txb1ILuyi1FyjXAz6f0s-49" value="V&lt;sub&gt;emergency_state&lt;/sub&gt;" style="ellipse;whiteSpace=wrap;html=1;aspect=fixed;fillColor=#FFFFFF;strokeColor=#080505;strokeWidth=1;" vertex="1" parent="1">
          <mxGeometry x="-1905" y="560" width="80" height="80" as="geometry" />
        </mxCell>
        <mxCell id="Txb1ILuyi1FyjXAz6f0s-51" value="" style="endArrow=classic;html=1;rounded=0;" edge="1" parent="1" source="Txb1ILuyi1FyjXAz6f0s-41" target="Txb1ILuyi1FyjXAz6f0s-49">
          <mxGeometry width="50" height="50" relative="1" as="geometry">
            <mxPoint x="-1880" y="710" as="sourcePoint" />
            <mxPoint x="-1830" y="660" as="targetPoint" />
          </mxGeometry>
        </mxCell>
        <mxCell id="Txb1ILuyi1FyjXAz6f0s-52" value="&lt;span style=&quot;font-size: 14px;&quot;&gt;F&lt;/span&gt;&lt;span style=&quot;font-size: 11.6667px;&quot;&gt;&lt;sub&gt;Emergency_system&lt;/sub&gt;&lt;/span&gt;" style="ellipse;whiteSpace=wrap;html=1;aspect=fixed;fillColor=#A9C4EB;" vertex="1" parent="1">
          <mxGeometry x="-1840" y="670" width="80" height="80" as="geometry" />
        </mxCell>
        <mxCell id="Txb1ILuyi1FyjXAz6f0s-53" value="" style="endArrow=classic;html=1;rounded=0;" edge="1" parent="1" source="Txb1ILuyi1FyjXAz6f0s-49" target="Txb1ILuyi1FyjXAz6f0s-52">
          <mxGeometry width="50" height="50" relative="1" as="geometry">
            <mxPoint x="-1820" y="760" as="sourcePoint" />
            <mxPoint x="-1770" y="710" as="targetPoint" />
          </mxGeometry>
        </mxCell>
        <mxCell id="Txb1ILuyi1FyjXAz6f0s-54" value="&lt;span style=&quot;font-size: 14px;&quot;&gt;F&lt;/span&gt;&lt;span style=&quot;font-size: 11.6667px;&quot;&gt;&lt;sub&gt;Emergency_pump&lt;/sub&gt;&lt;/span&gt;" style="ellipse;whiteSpace=wrap;html=1;aspect=fixed;fillColor=#A9C4EB;" vertex="1" parent="1">
          <mxGeometry x="-1710" y="580" width="80" height="80" as="geometry" />
        </mxCell>
        <mxCell id="Txb1ILuyi1FyjXAz6f0s-55" value="" style="endArrow=classic;html=1;rounded=0;" edge="1" parent="1" source="Txb1ILuyi1FyjXAz6f0s-54" target="Txb1ILuyi1FyjXAz6f0s-52">
          <mxGeometry width="50" height="50" relative="1" as="geometry">
            <mxPoint x="-1600" y="640" as="sourcePoint" />
            <mxPoint x="-1550" y="590" as="targetPoint" />
          </mxGeometry>
        </mxCell>
        <mxCell id="Txb1ILuyi1FyjXAz6f0s-56" value="&lt;font style=&quot;font-size: 14px;&quot;&gt;H&lt;sub&gt;water&lt;/sub&gt;&lt;/font&gt;" style="ellipse;whiteSpace=wrap;html=1;aspect=fixed;fillColor=#CCCCCC;" vertex="1" parent="1">
          <mxGeometry x="-1670" y="730" width="80" height="80" as="geometry" />
        </mxCell>
        <mxCell id="Txb1ILuyi1FyjXAz6f0s-57" value="" style="endArrow=classic;html=1;rounded=0;" edge="1" parent="1" source="Txb1ILuyi1FyjXAz6f0s-56" target="Txb1ILuyi1FyjXAz6f0s-52">
          <mxGeometry width="50" height="50" relative="1" as="geometry">
            <mxPoint x="-1620" y="760" as="sourcePoint" />
            <mxPoint x="-1570" y="710" as="targetPoint" />
          </mxGeometry>
        </mxCell>
        <mxCell id="Txb1ILuyi1FyjXAz6f0s-58" value="" style="endArrow=classic;html=1;rounded=0;" edge="1" parent="1" source="Txb1ILuyi1FyjXAz6f0s-52" target="Txb1ILuyi1FyjXAz6f0s-47">
          <mxGeometry width="50" height="50" relative="1" as="geometry">
            <mxPoint x="-1880" y="790" as="sourcePoint" />
            <mxPoint x="-1830" y="740" as="targetPoint" />
          </mxGeometry>
        </mxCell>
        <mxCell id="Txb1ILuyi1FyjXAz6f0s-60" value="&lt;span style=&quot;font-size: 14px;&quot;&gt;F&lt;sub&gt;core&lt;/sub&gt;&lt;/span&gt;" style="ellipse;whiteSpace=wrap;html=1;aspect=fixed;fillColor=#A9C4EB;" vertex="1" parent="1">
          <mxGeometry x="-2000" y="820" width="80" height="80" as="geometry" />
        </mxCell>
        <mxCell id="Txb1ILuyi1FyjXAz6f0s-61" value="" style="endArrow=classic;html=1;rounded=0;" edge="1" parent="1" source="Txb1ILuyi1FyjXAz6f0s-52" target="Txb1ILuyi1FyjXAz6f0s-60">
          <mxGeometry width="50" height="50" relative="1" as="geometry">
            <mxPoint x="-1830" y="880" as="sourcePoint" />
            <mxPoint x="-1780" y="830" as="targetPoint" />
          </mxGeometry>
        </mxCell>
        <mxCell id="Txb1ILuyi1FyjXAz6f0s-62" value="" style="endArrow=classic;html=1;rounded=0;" edge="1" parent="1" source="Txb1ILuyi1FyjXAz6f0s-60" target="Txb1ILuyi1FyjXAz6f0s-47">
          <mxGeometry width="50" height="50" relative="1" as="geometry">
            <mxPoint x="-2080" y="910" as="sourcePoint" />
            <mxPoint x="-2030" y="860" as="targetPoint" />
          </mxGeometry>
        </mxCell>
        <mxCell id="Txb1ILuyi1FyjXAz6f0s-64" value="&lt;font style=&quot;font-size: 14px;&quot;&gt;H&lt;sub&gt;Injection_motor&lt;/sub&gt;&lt;/font&gt;" style="ellipse;whiteSpace=wrap;html=1;aspect=fixed;fillColor=#CCCCCC;" vertex="1" parent="1">
          <mxGeometry x="-1870" y="905" width="80" height="80" as="geometry" />
        </mxCell>
        <mxCell id="Txb1ILuyi1FyjXAz6f0s-65" value="&lt;font style=&quot;font-size: 14px;&quot;&gt;H&lt;/font&gt;&lt;font style=&quot;font-size: 11.6667px;&quot;&gt;&lt;sub&gt;Control_Rods&lt;/sub&gt;&lt;/font&gt;" style="ellipse;whiteSpace=wrap;html=1;aspect=fixed;fillColor=#CCCCCC;" vertex="1" parent="1">
          <mxGeometry x="-2120" y="890" width="80" height="80" as="geometry" />
        </mxCell>
        <mxCell id="Txb1ILuyi1FyjXAz6f0s-66" value="&lt;font style=&quot;font-size: 14px;&quot;&gt;H&lt;/font&gt;&lt;font style=&quot;font-size: 11.6667px;&quot;&gt;&lt;sub&gt;Fuel_Rods&lt;/sub&gt;&lt;/font&gt;" style="ellipse;whiteSpace=wrap;html=1;aspect=fixed;fillColor=#CCCCCC;" vertex="1" parent="1">
          <mxGeometry x="-2030" y="990" width="80" height="80" as="geometry" />
        </mxCell>
        <mxCell id="Txb1ILuyi1FyjXAz6f0s-67" value="&lt;font style=&quot;font-size: 10px;&quot;&gt;Corrosion&lt;/font&gt;" style="ellipse;whiteSpace=wrap;html=1;aspect=fixed;fillColor=#FFFFFF;strokeColor=#F19C99;strokeWidth=2;dashed=1;dashPattern=8 8;" vertex="1" parent="1">
          <mxGeometry x="-2190" y="850" width="50" height="50" as="geometry" />
        </mxCell>
        <mxCell id="Txb1ILuyi1FyjXAz6f0s-68" value="&lt;font style=&quot;font-size: 10px;&quot;&gt;Fretting&lt;/font&gt;" style="ellipse;whiteSpace=wrap;html=1;aspect=fixed;fillColor=#FFFFFF;strokeColor=#F19C99;strokeWidth=2;dashed=1;dashPattern=8 8;" vertex="1" parent="1">
          <mxGeometry x="-2255" y="910" width="50" height="50" as="geometry" />
        </mxCell>
        <mxCell id="Txb1ILuyi1FyjXAz6f0s-69" value="&lt;font style=&quot;font-size: 10px;&quot;&gt;Aging&lt;/font&gt;" style="ellipse;whiteSpace=wrap;html=1;aspect=fixed;fillColor=#FFFFFF;strokeColor=#F19C99;strokeWidth=2;dashed=1;dashPattern=8 8;" vertex="1" parent="1">
          <mxGeometry x="-2150" y="1030" width="50" height="50" as="geometry" />
        </mxCell>
        <mxCell id="Txb1ILuyi1FyjXAz6f0s-70" value="&lt;font style=&quot;font-size: 10px;&quot;&gt;Maintenance&lt;/font&gt;" style="ellipse;whiteSpace=wrap;html=1;aspect=fixed;fillColor=#FFFFFF;strokeColor=#F19C99;strokeWidth=2;dashed=1;dashPattern=8 8;" vertex="1" parent="1">
          <mxGeometry x="-2240" y="990" width="50" height="50" as="geometry" />
        </mxCell>
        <mxCell id="Txb1ILuyi1FyjXAz6f0s-72" value="" style="ellipse;whiteSpace=wrap;html=1;aspect=fixed;fillColor=#000000;strokeColor=#000000;" vertex="1" parent="1">
          <mxGeometry x="-2145" y="980" width="10" height="10" as="geometry" />
        </mxCell>
        <mxCell id="Txb1ILuyi1FyjXAz6f0s-73" value="" style="shape=flexArrow;endArrow=classic;html=1;rounded=0;width=0.3225806451612903;endSize=1.064804469273743;endWidth=2.980717246350694;strokeColor=#F19C99;entryX=0;entryY=0.5;entryDx=0;entryDy=0;" edge="1" parent="1" source="Txb1ILuyi1FyjXAz6f0s-68" target="Txb1ILuyi1FyjXAz6f0s-72">
          <mxGeometry width="50" height="50" relative="1" as="geometry">
            <mxPoint x="-1354" y="662" as="sourcePoint" />
            <mxPoint x="-1314" y="637" as="targetPoint" />
          </mxGeometry>
        </mxCell>
        <mxCell id="Txb1ILuyi1FyjXAz6f0s-75" value="" style="shape=flexArrow;endArrow=classic;html=1;rounded=0;width=0.3225806451612903;endSize=1.064804469273743;endWidth=2.980717246350694;strokeColor=#F19C99;entryX=0.5;entryY=0;entryDx=0;entryDy=0;" edge="1" parent="1" source="Txb1ILuyi1FyjXAz6f0s-67" target="Txb1ILuyi1FyjXAz6f0s-72">
          <mxGeometry width="50" height="50" relative="1" as="geometry">
            <mxPoint x="-2198" y="958" as="sourcePoint" />
            <mxPoint x="-2135" y="995" as="targetPoint" />
          </mxGeometry>
        </mxCell>
        <mxCell id="Txb1ILuyi1FyjXAz6f0s-76" value="" style="shape=flexArrow;endArrow=classic;html=1;rounded=0;width=0.3225806451612903;endSize=1.064804469273743;endWidth=2.980717246350694;strokeColor=#F19C99;entryX=0.5;entryY=1;entryDx=0;entryDy=0;" edge="1" parent="1" source="Txb1ILuyi1FyjXAz6f0s-70" target="Txb1ILuyi1FyjXAz6f0s-72">
          <mxGeometry width="50" height="50" relative="1" as="geometry">
            <mxPoint x="-2198" y="958" as="sourcePoint" />
            <mxPoint x="-2135" y="995" as="targetPoint" />
          </mxGeometry>
        </mxCell>
        <mxCell id="Txb1ILuyi1FyjXAz6f0s-77" value="" style="shape=flexArrow;endArrow=classic;html=1;rounded=0;width=0.3225806451612903;endSize=1.064804469273743;endWidth=2.980717246350694;strokeColor=#F19C99;entryX=1;entryY=1;entryDx=0;entryDy=0;" edge="1" parent="1" source="Txb1ILuyi1FyjXAz6f0s-69" target="Txb1ILuyi1FyjXAz6f0s-72">
          <mxGeometry width="50" height="50" relative="1" as="geometry">
            <mxPoint x="-2188" y="968" as="sourcePoint" />
            <mxPoint x="-2125" y="1005" as="targetPoint" />
          </mxGeometry>
        </mxCell>
        <mxCell id="Txb1ILuyi1FyjXAz6f0s-79" value="" style="endArrow=classic;html=1;rounded=0;exitX=1;exitY=0;exitDx=0;exitDy=0;" edge="1" parent="1" source="Txb1ILuyi1FyjXAz6f0s-72" target="Txb1ILuyi1FyjXAz6f0s-65">
          <mxGeometry width="50" height="50" relative="1" as="geometry">
            <mxPoint x="-2100" y="1030" as="sourcePoint" />
            <mxPoint x="-2050" y="980" as="targetPoint" />
          </mxGeometry>
        </mxCell>
        <mxCell id="Txb1ILuyi1FyjXAz6f0s-80" value="" style="endArrow=classic;html=1;rounded=0;exitX=1;exitY=0.5;exitDx=0;exitDy=0;" edge="1" parent="1" source="Txb1ILuyi1FyjXAz6f0s-72" target="Txb1ILuyi1FyjXAz6f0s-66">
          <mxGeometry width="50" height="50" relative="1" as="geometry">
            <mxPoint x="-2120.004466094067" y="998.5355339059329" as="sourcePoint" />
            <mxPoint x="-2013.54" y="1030" as="targetPoint" />
          </mxGeometry>
        </mxCell>
        <mxCell id="Txb1ILuyi1FyjXAz6f0s-81" value="" style="endArrow=classic;html=1;rounded=0;" edge="1" parent="1" source="Txb1ILuyi1FyjXAz6f0s-66" target="Txb1ILuyi1FyjXAz6f0s-60">
          <mxGeometry width="50" height="50" relative="1" as="geometry">
            <mxPoint x="-1950" y="1020" as="sourcePoint" />
            <mxPoint x="-1900" y="970" as="targetPoint" />
          </mxGeometry>
        </mxCell>
        <mxCell id="Txb1ILuyi1FyjXAz6f0s-83" value="" style="endArrow=classic;html=1;rounded=0;" edge="1" parent="1" source="Txb1ILuyi1FyjXAz6f0s-65" target="Txb1ILuyi1FyjXAz6f0s-60">
          <mxGeometry width="50" height="50" relative="1" as="geometry">
            <mxPoint x="-2006" y="1013" as="sourcePoint" />
            <mxPoint x="-1964" y="907" as="targetPoint" />
          </mxGeometry>
        </mxCell>
        <mxCell id="Txb1ILuyi1FyjXAz6f0s-84" value="&lt;font style=&quot;font-size: 10px;&quot;&gt;Maintenance&lt;/font&gt;" style="ellipse;whiteSpace=wrap;html=1;aspect=fixed;fillColor=#FFFFFF;strokeColor=#F19C99;strokeWidth=2;dashed=1;dashPattern=8 8;" vertex="1" parent="1">
          <mxGeometry x="-1730" y="880" width="50" height="50" as="geometry" />
        </mxCell>
        <mxCell id="Txb1ILuyi1FyjXAz6f0s-85" value="&lt;font style=&quot;font-size: 10px;&quot;&gt;Aging&lt;/font&gt;" style="ellipse;whiteSpace=wrap;html=1;aspect=fixed;fillColor=#FFFFFF;strokeColor=#F19C99;strokeWidth=2;dashed=1;dashPattern=8 8;" vertex="1" parent="1">
          <mxGeometry x="-1730" y="960" width="50" height="50" as="geometry" />
        </mxCell>
        <mxCell id="Txb1ILuyi1FyjXAz6f0s-87" value="&lt;font style=&quot;font-size: 10px;&quot;&gt;Bolt Failure&lt;/font&gt;" style="ellipse;whiteSpace=wrap;html=1;aspect=fixed;fillColor=#FFFFFF;strokeColor=#F19C99;strokeWidth=2;dashed=1;dashPattern=8 8;" vertex="1" parent="1">
          <mxGeometry x="-1810" y="1020" width="50" height="50" as="geometry" />
        </mxCell>
        <mxCell id="Txb1ILuyi1FyjXAz6f0s-88" value="&lt;font style=&quot;font-size: 10px;&quot;&gt;Incorrect Software&lt;/font&gt;" style="ellipse;whiteSpace=wrap;html=1;aspect=fixed;fillColor=#FFFFFF;strokeColor=#F19C99;strokeWidth=2;dashed=1;dashPattern=8 8;" vertex="1" parent="1">
          <mxGeometry x="-1890" y="1030" width="50" height="50" as="geometry" />
        </mxCell>
        <mxCell id="Txb1ILuyi1FyjXAz6f0s-89" value="" style="shape=flexArrow;endArrow=classic;html=1;rounded=0;width=0.3225806451612903;endSize=1.064804469273743;endWidth=2.980717246350694;strokeColor=#F19C99;" edge="1" parent="1" source="Txb1ILuyi1FyjXAz6f0s-84" target="Txb1ILuyi1FyjXAz6f0s-64">
          <mxGeometry width="50" height="50" relative="1" as="geometry">
            <mxPoint x="-1354" y="662" as="sourcePoint" />
            <mxPoint x="-1314" y="636" as="targetPoint" />
          </mxGeometry>
        </mxCell>
        <mxCell id="Txb1ILuyi1FyjXAz6f0s-90" value="" style="shape=flexArrow;endArrow=classic;html=1;rounded=0;width=0.3225806451612903;endSize=1.064804469273743;endWidth=2.980717246350694;strokeColor=#F19C99;" edge="1" parent="1" source="Txb1ILuyi1FyjXAz6f0s-85" target="Txb1ILuyi1FyjXAz6f0s-64">
          <mxGeometry width="50" height="50" relative="1" as="geometry">
            <mxPoint x="-1690" y="953" as="sourcePoint" />
            <mxPoint x="-1790" y="944" as="targetPoint" />
          </mxGeometry>
        </mxCell>
        <mxCell id="Txb1ILuyi1FyjXAz6f0s-91" value="" style="shape=flexArrow;endArrow=classic;html=1;rounded=0;width=0.3225806451612903;endSize=1.064804469273743;endWidth=2.980717246350694;strokeColor=#F19C99;" edge="1" parent="1" source="Txb1ILuyi1FyjXAz6f0s-87" target="Txb1ILuyi1FyjXAz6f0s-64">
          <mxGeometry width="50" height="50" relative="1" as="geometry">
            <mxPoint x="-1735" y="1010" as="sourcePoint" />
            <mxPoint x="-1798" y="964" as="targetPoint" />
          </mxGeometry>
        </mxCell>
        <mxCell id="Txb1ILuyi1FyjXAz6f0s-92" value="" style="shape=flexArrow;endArrow=classic;html=1;rounded=0;width=0.3225806451612903;endSize=1.064804469273743;endWidth=2.980717246350694;strokeColor=#F19C99;" edge="1" parent="1" source="Txb1ILuyi1FyjXAz6f0s-88" target="Txb1ILuyi1FyjXAz6f0s-64">
          <mxGeometry width="50" height="50" relative="1" as="geometry">
            <mxPoint x="-1725" y="1020" as="sourcePoint" />
            <mxPoint x="-1788" y="974" as="targetPoint" />
          </mxGeometry>
        </mxCell>
        <mxCell id="Txb1ILuyi1FyjXAz6f0s-93" value="" style="endArrow=classic;html=1;rounded=0;" edge="1" parent="1" source="Txb1ILuyi1FyjXAz6f0s-64" target="Txb1ILuyi1FyjXAz6f0s-60">
          <mxGeometry width="50" height="50" relative="1" as="geometry">
            <mxPoint x="-1910" y="1020" as="sourcePoint" />
            <mxPoint x="-1860" y="970" as="targetPoint" />
          </mxGeometry>
        </mxCell>
      </root>
    </mxGraphModel>
  </diagram>
</mxfile>
